<?xml version="1.0" standalone="no"?>
<!DOCTYPE svg PUBLIC "-//W3C//DTD SVG 20010904//EN"
 "http://www.w3.org/TR/2001/REC-SVG-20010904/DTD/svg10.dtd">
<svg version="1.0" xmlns="http://www.w3.org/2000/svg"
 width="500.000000pt" height="500.000000pt" viewBox="0 0 500.000000 500.000000"
 preserveAspectRatio="xMidYMid meet">
<metadata>
Created by potrace 1.14, written by Peter Selinger 2001-2017
</metadata>
<g transform="translate(0.000000,500.000000) scale(0.100000,-0.100000)"
fill="#000000" stroke="none">
<path d="M2367 4684 c-1 -2 -34 -6 -72 -9 -39 -3 -97 -10 -130 -15 -33 -5 -78
-12 -100 -16 -22 -3 -43 -8 -47 -11 -8 -4 -26 -8 -78 -19 -50 -10 -167 -47
-240 -76 -78 -31 -241 -108 -250 -117 -3 -3 -34 -21 -70 -40 -36 -19 -67 -37
-70 -41 -3 -3 -23 -17 -44 -30 -36 -22 -146 -106 -221 -169 -67 -57 -223 -220
-265 -276 -25 -33 -47 -62 -50 -65 -6 -6 -46 -66 -96 -145 -44 -71 -135 -251
-164 -327 -11 -29 -24 -62 -29 -73 -40 -90 -104 -362 -117 -490 -3 -38 -8 -83
-10 -100 -4 -39 -4 -286 0 -345 52 -705 468 -1361 1089 -1719 220 -126 473
-222 677 -255 19 -3 44 -7 55 -10 24 -4 124 -17 180 -22 52 -4 317 -4 377 1
80 6 150 16 243 35 120 24 121 24 232 59 385 123 760 374 1012 679 73 89 168
218 184 253 4 8 21 37 37 64 31 51 130 251 130 261 0 3 6 20 14 37 51 115 103
320 127 502 14 105 20 474 9 519 -5 17 -11 56 -14 86 -11 99 -18 134 -43 230
-24 94 -65 226 -82 265 -5 11 -21 49 -36 85 -131 309 -395 651 -642 832 -24
17 -43 35 -43 40 0 4 -5 8 -10 8 -6 0 -20 9 -32 20 -12 11 -28 20 -35 20 -7 0
-13 5 -13 10 0 6 -6 10 -14 10 -8 0 -16 4 -18 8 -9 22 -302 172 -393 202 -22
7 -46 18 -54 24 -8 6 -17 10 -20 9 -3 -1 -28 5 -56 13 -221 69 -395 95 -648
98 -86 1 -159 1 -160 0z"/>
</g>
</svg>
